<?xml version="1.0" encoding="UTF-8"?>
<svg id="_レイヤー_2" data-name="レイヤー 2" xmlns="http://www.w3.org/2000/svg" xmlns:xlink="http://www.w3.org/1999/xlink" viewBox="0 0 165.19 152.34">
  <defs>
    <style>
      .cls-1 {
        fill: url(#_名称未設定グラデーション_2241);
      }

      .cls-2 {
        fill: url(#_名称未設定グラデーション_1732);
      }

      .cls-3 {
        fill: url(#_名称未設定グラデーション_1732-2);
      }

      .cls-4 {
        fill: url(#_名称未設定グラデーション_2241-2);
      }

      .cls-5 {
        fill: url(#_名称未設定グラデーション_2241-7);
      }

      .cls-6 {
        fill: url(#_名称未設定グラデーション_2241-5);
      }

      .cls-7 {
        fill: url(#_名称未設定グラデーション_2241-10);
      }

      .cls-8 {
        fill: url(#_名称未設定グラデーション_2241-6);
      }

      .cls-9 {
        fill: url(#_名称未設定グラデーション_2241-4);
      }

      .cls-10 {
        fill: url(#_名称未設定グラデーション_2241-3);
      }

      .cls-11 {
        fill: url(#_名称未設定グラデーション_2241-9);
      }

      .cls-12 {
        fill: url(#_名称未設定グラデーション_1459);
      }

      .cls-13 {
        fill: url(#_名称未設定グラデーション_2241-8);
      }
    </style>
    <linearGradient id="_名称未設定グラデーション_2241" data-name="名称未設定グラデーション 2241" x1="11.67" y1="151.93" x2="11.67" y2="130.08" gradientUnits="userSpaceOnUse">
      <stop offset="0" stop-color="#d37b2e"/>
      <stop offset=".12" stop-color="#da8437"/>
      <stop offset=".31" stop-color="#f09c4f"/>
      <stop offset=".42" stop-color="#ffad60"/>
      <stop offset=".84" stop-color="#ffb74a"/>
      <stop offset=".89" stop-color="#ffb74c"/>
      <stop offset=".91" stop-color="#ffbb53"/>
      <stop offset=".93" stop-color="#ffc161"/>
      <stop offset=".95" stop-color="#ffc974"/>
      <stop offset=".96" stop-color="#ffd38c"/>
      <stop offset=".98" stop-color="#ffe0aa"/>
      <stop offset=".99" stop-color="#fff0cd"/>
      <stop offset="1" stop-color="ivory"/>
    </linearGradient>
    <linearGradient id="_名称未設定グラデーション_2241-2" data-name="名称未設定グラデーション 2241" x1="26.97" y1="152.34" x2="26.97" y2="136.1" xlink:href="#_名称未設定グラデーション_2241"/>
    <linearGradient id="_名称未設定グラデーション_2241-3" data-name="名称未設定グラデーション 2241" x1="42.91" x2="42.91" y2="135.71" xlink:href="#_名称未設定グラデーション_2241"/>
    <linearGradient id="_名称未設定グラデーション_2241-4" data-name="名称未設定グラデーション 2241" x1="56.02" y1="152.34" x2="56.02" y2="135.71" xlink:href="#_名称未設定グラデーション_2241"/>
    <linearGradient id="_名称未設定グラデーション_2241-5" data-name="名称未設定グラデーション 2241" x1="74.69" x2="74.69" y2="128.28" xlink:href="#_名称未設定グラデーション_2241"/>
    <linearGradient id="_名称未設定グラデーション_2241-6" data-name="名称未設定グラデーション 2241" x1="91.38" y1="152.34" x2="91.38" y2="136.1" xlink:href="#_名称未設定グラデーション_2241"/>
    <linearGradient id="_名称未設定グラデーション_2241-7" data-name="名称未設定グラデーション 2241" x1="110.07" x2="110.07" xlink:href="#_名称未設定グラデーション_2241"/>
    <linearGradient id="_名称未設定グラデーション_2241-8" data-name="名称未設定グラデーション 2241" x1="122.08" x2="122.08" y2="128.28" xlink:href="#_名称未設定グラデーション_2241"/>
    <linearGradient id="_名称未設定グラデーション_2241-9" data-name="名称未設定グラデーション 2241" x1="135.52" x2="135.52" y2="135.71" xlink:href="#_名称未設定グラデーション_2241"/>
    <linearGradient id="_名称未設定グラデーション_2241-10" data-name="名称未設定グラデーション 2241" x1="153.29" y1="152.34" x2="153.29" y2="135.71" xlink:href="#_名称未設定グラデーション_2241"/>
    <linearGradient id="_名称未設定グラデーション_1732" data-name="名称未設定グラデーション 1732" x1="146.1" y1="101.83" x2="103.43" y2="27.93" gradientUnits="userSpaceOnUse">
      <stop offset="0" stop-color="#d7b182"/>
      <stop offset=".26" stop-color="#eeb760"/>
      <stop offset=".62" stop-color="#f7da90"/>
      <stop offset=".72" stop-color="#f7da92"/>
      <stop offset=".79" stop-color="#f7dd9b"/>
      <stop offset=".85" stop-color="#f8e2aa"/>
      <stop offset=".9" stop-color="#fae9bf"/>
      <stop offset=".95" stop-color="#fcf2da"/>
      <stop offset="1" stop-color="#fefdfb"/>
      <stop offset="1" stop-color="#fff"/>
    </linearGradient>
    <linearGradient id="_名称未設定グラデーション_1732-2" data-name="名称未設定グラデーション 1732" x1="103.78" y1="83.67" x2="79.41" y2="41.47" xlink:href="#_名称未設定グラデーション_1732"/>
    <linearGradient id="_名称未設定グラデーション_1459" data-name="名称未設定グラデーション 1459" x1="230.92" y1="265.42" x2="140.99" y2="190.59" gradientTransform="translate(-27.21 -222.94) rotate(22.27)" gradientUnits="userSpaceOnUse">
      <stop offset="0" stop-color="#d37126"/>
      <stop offset=".1" stop-color="#ec9347"/>
      <stop offset=".19" stop-color="#ffad60"/>
      <stop offset=".57" stop-color="#ffb74a"/>
      <stop offset=".74" stop-color="#ffb74b"/>
      <stop offset=".81" stop-color="#ffba52"/>
      <stop offset=".85" stop-color="#ffbf5e"/>
      <stop offset=".89" stop-color="#ffc76f"/>
      <stop offset=".92" stop-color="#ffd085"/>
      <stop offset=".95" stop-color="#ffdca0"/>
      <stop offset=".97" stop-color="#ffeac0"/>
      <stop offset=".99" stop-color="#fffae5"/>
      <stop offset="1" stop-color="ivory"/>
    </linearGradient>
  </defs>
  <g id="_レイヤー_1-2" data-name="レイヤー 1">
    <g>
      <g>
        <path class="cls-1" d="M8.71,151.93h-4v-21.86h13.92v3.35h-9.92v5.65h8.48v3.35h-8.48v9.51Z"/>
        <path class="cls-4" d="M26.97,152.34c-1.59,0-2.91-.27-3.95-.81-1.05-.54-1.84-1.27-2.37-2.18-.28-.49-.49-1.03-.63-1.62-.14-.59-.2-1.24-.2-1.96v-9.67h3.87v9.26c0,.53.04.99.11,1.38.08.39.19.72.34,1,.26.48.63.84,1.11,1.07.48.23,1.05.35,1.71.35.7,0,1.29-.13,1.79-.39s.87-.66,1.12-1.19c.25-.51.38-1.23.38-2.14v-9.34h3.87v9.67c0,1.29-.22,2.37-.67,3.25-.25.5-.57.96-.97,1.36-.4.41-.87.76-1.4,1.05-.54.29-1.15.51-1.83.67-.68.16-1.44.24-2.28.24Z"/>
        <path class="cls-10" d="M47.62,139.17h-.33c-1.19,0-2.23.18-3.13.53s-1.59.9-2.08,1.63v10.6h-3.87v-15.83h3.2l.36,2.21h.07c.46-.81,1.09-1.44,1.89-1.9.8-.46,1.76-.69,2.88-.69.39,0,.73.02,1.01.07v3.4Z"/>
        <path class="cls-9" d="M59.22,150.25h-.07c-.22.23-.48.46-.78.7-.3.24-.65.47-1.04.68-.39.21-.83.38-1.31.51-.48.13-1,.2-1.55.2-.75,0-1.45-.12-2.11-.35-.65-.23-1.21-.57-1.68-1.01s-.84-.97-1.1-1.6c-.27-.63-.4-1.33-.4-2.1,0-.85.16-1.61.47-2.29.31-.68.74-1.25,1.3-1.72.56-.47,1.22-.82,1.99-1.07.77-.25,1.63-.37,2.56-.37.69,0,1.32.04,1.9.13.58.09,1.08.19,1.52.31v-.64c0-.37-.06-.73-.19-1.07-.12-.34-.33-.65-.6-.91-.28-.27-.64-.48-1.09-.64s-.99-.24-1.63-.24c-.78,0-1.57.09-2.35.26-.78.17-1.63.44-2.55.78v-3.02c.79-.35,1.64-.62,2.53-.8.89-.18,1.83-.28,2.81-.29,1.15,0,2.16.14,3.03.42s1.59.67,2.17,1.17,1.02,1.08,1.31,1.76c.29.68.43,1.41.43,2.21v5.96c0,1.05.01,1.94.03,2.7.02.75.04,1.42.07,2.01h-3.5l-.16-1.68ZM58.91,145.18c-.37-.09-.79-.17-1.27-.24s-.96-.11-1.45-.11c-.95,0-1.7.19-2.25.56-.55.38-.83.95-.83,1.72,0,.36.06.67.19.94.12.27.29.49.51.66.21.17.46.31.74.39.28.09.58.13.9.13.39,0,.76-.05,1.11-.16.35-.1.67-.23.96-.39.29-.16.56-.33.79-.53s.43-.39.6-.57v-2.42Z"/>
        <path class="cls-6" d="M67.29,128.28h3.87v14.24h.08l6.03-6.42h4.79l-6.94,7.43,6.99,8.4h-4.69l-6.19-7.37h-.07v7.37h-3.87v-23.65Z"/>
        <path class="cls-8" d="M91.38,152.34c-1.59,0-2.91-.27-3.95-.81-1.05-.54-1.84-1.27-2.37-2.18-.28-.49-.49-1.03-.63-1.62-.14-.59-.2-1.24-.2-1.96v-9.67h3.87v9.26c0,.53.04.99.11,1.38.08.39.19.72.34,1,.26.48.63.84,1.11,1.07.48.23,1.05.35,1.71.35.7,0,1.29-.13,1.79-.39s.87-.66,1.12-1.19c.25-.51.38-1.23.38-2.14v-9.34h3.87v9.67c0,1.29-.22,2.37-.67,3.25-.25.5-.57.96-.97,1.36-.4.41-.87.76-1.4,1.05-.54.29-1.15.51-1.83.67-.68.16-1.44.24-2.28.24Z"/>
        <path class="cls-5" d="M107.11,151.93h-4v-21.86h13.92v3.35h-9.92v5.65h8.48v3.35h-8.48v9.51Z"/>
        <path class="cls-13" d="M120.05,128.28h4.07v4.2h-4.07v-4.2ZM120.15,136.1h3.87v15.83h-3.87v-15.83Z"/>
        <path class="cls-11" d="M131.92,138.31h.07c.23-.33.52-.65.87-.96.35-.32.75-.59,1.19-.83s.94-.43,1.48-.58c.54-.15,1.11-.22,1.72-.22.58,0,1.14.07,1.67.2.54.13,1.03.33,1.48.61.45.28.84.64,1.18,1.08s.61.97.81,1.58c.11.34.18.71.22,1.1.04.4.06.86.06,1.38v10.27h-3.87v-9.67c0-.42-.02-.79-.05-1.09-.03-.3-.09-.57-.18-.8-.2-.5-.49-.86-.89-1.08-.4-.22-.88-.33-1.45-.33-.75,0-1.47.18-2.16.53-.69.35-1.3.87-1.84,1.54v10.9h-3.87v-15.83h3.2l.36,2.21Z"/>
        <path class="cls-7" d="M155.07,149.22c.75,0,1.54-.08,2.35-.23.82-.15,1.64-.37,2.48-.65v3.09c-.5.22-1.27.42-2.3.62s-2.11.29-3.22.29-2.19-.14-3.19-.43c-1.01-.29-1.89-.75-2.64-1.4s-1.35-1.48-1.79-2.5c-.44-1.02-.66-2.26-.66-3.72s.21-2.7.62-3.77c.41-1.08.97-1.97,1.67-2.68s1.5-1.24,2.39-1.59,1.83-.53,2.78-.53,1.92.15,2.77.46c.84.31,1.57.78,2.19,1.44s1.09,1.49,1.44,2.52c.34,1.03.51,2.25.51,3.65-.01.54-.03,1.01-.05,1.39h-10.37c.05.73.22,1.35.49,1.87s.63.94,1.07,1.26c.44.32.96.56,1.54.7s1.23.22,1.91.22ZM153.52,138.73c-.49,0-.93.09-1.31.27-.38.18-.71.42-.99.73-.28.31-.5.67-.66,1.09-.16.41-.27.86-.33,1.32h6.22c0-.47-.06-.91-.19-1.32-.12-.41-.31-.78-.56-1.09-.24-.31-.55-.56-.91-.73s-.79-.27-1.28-.27Z"/>
      </g>
      <g>
        <g>
          <path class="cls-2" d="M153.58,36.34c-7.87-8.45-18.57-13.33-30.12-13.74-5.06-.18-9.84.56-14.26,2,2.03,3.04,3.77,6.27,5.22,9.61,2.73-.69,5.63-1.02,8.66-.91,8.69.31,16.73,3.98,22.66,10.34,5.93,6.36,9.02,14.65,8.71,23.33h0c-.31,8.69-3.98,16.73-10.34,22.66-6.36,5.93-14.65,9.02-23.33,8.71-5.41-.19-10.57-2.26-13.21-3.51-2.19,2.98-4.66,5.73-7.35,8.25.05.03.12.07.17.1.05.03.12.07.21.12l1.03.58h.06c3,1.54,10.4,4.86,18.7,5.16.52.02,1.05.03,1.57.03,10.97,0,21.37-4.09,29.44-11.61,8.45-7.87,13.33-18.57,13.74-30.11.41-11.55-3.7-22.56-11.58-31.01Z"/>
          <path class="cls-3" d="M78.72,64.17c-.57,9.84,3.03,20.51,9.37,28.56,2.76-2.38,5.21-5.09,7.32-8.09-4.06-5.82-6.39-13.22-6.01-19.86.48-8.33,4.55-16.85,11.09-22.92-1.34-3.38-3.08-6.59-5.2-9.57-9.77,8.08-15.91,20.12-16.59,31.88Z"/>
        </g>
        <path class="cls-12" d="M58.49,117.04c-7.5,0-15.01-1.46-22.16-4.39C6.48,100.43-7.86,66.2,4.36,36.36c5.92-14.46,17.11-25.75,31.52-31.78,14.41-6.04,30.31-6.1,44.76-.18,29.85,12.22,44.18,46.44,31.97,76.29-5.92,14.46-17.11,25.75-31.52,31.78-7.28,3.05-14.94,4.58-22.6,4.58ZM58.49,10.71c-6.26,0-12.51,1.25-18.46,3.74-11.77,4.93-20.92,14.15-25.75,25.96-9.98,24.38,1.73,52.34,26.11,62.32,11.81,4.84,24.8,4.78,36.57-.15,11.77-4.93,20.92-14.15,25.75-25.96h0c9.98-24.38-1.73-52.34-26.11-62.32-5.84-2.39-11.98-3.59-18.11-3.59Z"/>
      </g>
    </g>
  </g>
</svg>