<?xml version="1.0" encoding="UTF-8"?>
<svg id="_レイヤー_2" data-name="レイヤー 2" xmlns="http://www.w3.org/2000/svg" xmlns:xlink="http://www.w3.org/1999/xlink" viewBox="0 0 73.95 73.95">
  <defs>
    <style>
      .cls-1 {
        fill: url(#_名称未設定グラデーション_1732);
      }

      .cls-2 {
        fill: url(#_名称未設定グラデーション_1732-2);
      }

      .cls-3 {
        fill: #322f6e;
      }

      .cls-4 {
        fill: url(#_名称未設定グラデーション_1459);
      }
    </style>
    <linearGradient id="_名称未設定グラデーション_1732" data-name="名称未設定グラデーション 1732" x1="62.04" y1="54.07" x2="45.2" y2="24.9" gradientUnits="userSpaceOnUse">
      <stop offset="0" stop-color="#d7b182"/>
      <stop offset=".26" stop-color="#eeb760"/>
      <stop offset=".62" stop-color="#f7da90"/>
      <stop offset=".72" stop-color="#f7da92"/>
      <stop offset=".79" stop-color="#f7dd9b"/>
      <stop offset=".85" stop-color="#f8e2aa"/>
      <stop offset=".9" stop-color="#fae9bf"/>
      <stop offset=".95" stop-color="#fcf2da"/>
      <stop offset="1" stop-color="#fefdfb"/>
      <stop offset="1" stop-color="#fff"/>
    </linearGradient>
    <linearGradient id="_名称未設定グラデーション_1732-2" data-name="名称未設定グラデーション 1732" x1="45.34" y1="46.9" x2="35.72" y2="30.25" xlink:href="#_名称未設定グラデーション_1732"/>
    <linearGradient id="_名称未設定グラデーション_1459" data-name="名称未設定グラデーション 1459" x1="-62.71" y1="114.75" x2="-98.19" y2="85.22" gradientTransform="translate(139.8 -25.07) rotate(22.27)" gradientUnits="userSpaceOnUse">
      <stop offset="0" stop-color="#d37126"/>
      <stop offset=".1" stop-color="#ec9347"/>
      <stop offset=".19" stop-color="#ffad60"/>
      <stop offset=".57" stop-color="#ffb74a"/>
      <stop offset=".74" stop-color="#ffb74b"/>
      <stop offset=".81" stop-color="#ffba52"/>
      <stop offset=".85" stop-color="#ffbf5e"/>
      <stop offset=".89" stop-color="#ffc76f"/>
      <stop offset=".92" stop-color="#ffd085"/>
      <stop offset=".95" stop-color="#ffdca0"/>
      <stop offset=".97" stop-color="#ffeac0"/>
      <stop offset=".99" stop-color="#fffae5"/>
      <stop offset="1" stop-color="ivory"/>
    </linearGradient>
  </defs>
  <g id="_レイヤー_1-2" data-name="レイヤー 1">
    <g>
      <rect class="cls-3" width="73.95" height="73.95"/>
      <g>
        <g>
          <path class="cls-1" d="M64.99,28.22c-3.11-3.34-7.33-5.26-11.88-5.42-2-.07-3.88.22-5.63.79.8,1.2,1.49,2.47,2.06,3.79,1.08-.27,2.22-.4,3.42-.36,3.43.12,6.6,1.57,8.94,4.08,2.34,2.51,3.56,5.78,3.44,9.21h0c-.12,3.43-1.57,6.6-4.08,8.94-2.51,2.34-5.78,3.56-9.21,3.44-2.14-.08-4.17-.89-5.21-1.38-.87,1.17-1.84,2.26-2.9,3.25.02.01.05.03.07.04.02.01.05.03.08.05l.41.23h.03c1.18.61,4.1,1.92,7.38,2.04.21,0,.41.01.62.01,4.33,0,8.44-1.61,11.62-4.58,3.34-3.11,5.26-7.33,5.42-11.88.16-4.56-1.46-8.9-4.57-12.24Z"/>
          <path class="cls-2" d="M35.45,39.2c-.22,3.88,1.2,8.09,3.7,11.27,1.09-.94,2.06-2.01,2.89-3.19-1.6-2.3-2.52-5.22-2.37-7.84.19-3.29,1.8-6.65,4.38-9.05-.53-1.33-1.22-2.6-2.05-3.78-3.86,3.19-6.28,7.94-6.55,12.58Z"/>
        </g>
        <path class="cls-4" d="M27.46,60.07c-2.96,0-5.92-.58-8.75-1.73C6.94,53.51,1.28,40.01,6.1,28.23c2.34-5.71,6.75-10.16,12.44-12.54,5.69-2.38,11.96-2.41,17.67-.07,11.78,4.82,17.44,18.33,12.61,30.11-2.34,5.71-6.75,10.16-12.44,12.54-2.87,1.2-5.9,1.81-8.92,1.81ZM27.46,18.11c-2.47,0-4.94.49-7.29,1.48-4.65,1.95-8.25,5.59-10.16,10.25-3.94,9.62.68,20.65,10.31,24.59,4.66,1.91,9.79,1.89,14.43-.06,4.65-1.95,8.25-5.59,10.16-10.25h0c3.94-9.62-.68-20.65-10.31-24.59-2.31-.94-4.73-1.42-7.15-1.42Z"/>
      </g>
    </g>
  </g>
</svg>