<?xml version="1.0" encoding="UTF-8"?>
<svg id="_レイヤー_2" data-name="レイヤー 2" xmlns="http://www.w3.org/2000/svg" xmlns:xlink="http://www.w3.org/1999/xlink" viewBox="0 0 721.01 141.48">
  <defs>
    <style>
      .cls-1 {
        fill: url(#_名称未設定グラデーション_1936-4);
      }

      .cls-2 {
        fill: url(#_名称未設定グラデーション_1936-6);
      }

      .cls-3 {
        fill: url(#_名称未設定グラデーション_1936-5);
      }

      .cls-4 {
        fill: none;
        stroke: url(#_名称未設定グラデーション_30);
        stroke-miterlimit: 10;
        stroke-width: 5px;
      }

      .cls-5 {
        fill: url(#_名称未設定グラデーション_132);
      }

      .cls-6 {
        fill: url(#_名称未設定グラデーション_1936);
      }

      .cls-7 {
        fill: url(#_名称未設定グラデーション_1936-2);
      }

      .cls-8 {
        fill: url(#_名称未設定グラデーション_1936-3);
      }

      .cls-9 {
        fill: url(#_名称未設定グラデーション_1936-7);
      }

      .cls-10 {
        fill: url(#_名称未設定グラデーション_2308);
      }
    </style>
    <linearGradient id="_名称未設定グラデーション_132" data-name="名称未設定グラデーション 132" x1="178.57" y1="124.51" x2="128.12" y2="37.13" gradientUnits="userSpaceOnUse">
      <stop offset="0" stop-color="#d7b182"/>
      <stop offset=".26" stop-color="#eeb760"/>
      <stop offset=".62" stop-color="#f7da90"/>
      <stop offset=".72" stop-color="#f7da92"/>
      <stop offset=".79" stop-color="#f7dd9b"/>
      <stop offset=".85" stop-color="#f8e2aa"/>
      <stop offset=".9" stop-color="#fae9bf"/>
      <stop offset=".95" stop-color="#fcf2da"/>
      <stop offset="1" stop-color="#fefdfb"/>
      <stop offset="1" stop-color="#fff"/>
    </linearGradient>
    <linearGradient id="_名称未設定グラデーション_2308" data-name="名称未設定グラデーション 2308" x1="124.13" y1="330.56" x2="15.42" y2="240.11" gradientTransform="translate(114.29 -219.75) rotate(22.27)" gradientUnits="userSpaceOnUse">
      <stop offset="0" stop-color="#c19d00"/>
      <stop offset=".12" stop-color="#ebb138"/>
      <stop offset=".19" stop-color="#ffbb52"/>
      <stop offset=".44" stop-color="#ffd34c"/>
      <stop offset=".57" stop-color="#ffe14a"/>
      <stop offset=".74" stop-color="#ffe14b"/>
      <stop offset=".81" stop-color="#ffe252"/>
      <stop offset=".85" stop-color="#ffe45e"/>
      <stop offset=".89" stop-color="#ffe76f"/>
      <stop offset=".92" stop-color="#ffeb85"/>
      <stop offset=".95" stop-color="#fff0a0"/>
      <stop offset=".97" stop-color="#fff6c0"/>
      <stop offset=".99" stop-color="#fffde5"/>
      <stop offset="1" stop-color="ivory"/>
    </linearGradient>
    <linearGradient id="_名称未設定グラデーション_30" data-name="名称未設定グラデーション 30" x1="83.96" y1="107.29" x2="45.22" y2="40.19" gradientUnits="userSpaceOnUse">
      <stop offset="0" stop-color="#d7b182"/>
      <stop offset=".26" stop-color="#eeb760"/>
      <stop offset=".62" stop-color="#f7da90"/>
      <stop offset=".72" stop-color="#f7da92"/>
      <stop offset=".79" stop-color="#f7dd9b"/>
      <stop offset=".85" stop-color="#f8e2aa"/>
      <stop offset=".9" stop-color="#fae9bf"/>
      <stop offset=".95" stop-color="#fcf2da"/>
      <stop offset="1" stop-color="#fefdfb"/>
      <stop offset="1" stop-color="#fff"/>
    </linearGradient>
    <linearGradient id="_名称未設定グラデーション_1936" data-name="名称未設定グラデーション 1936" x1="270.22" y1="107.41" x2="270.22" y2="44.28" gradientUnits="userSpaceOnUse">
      <stop offset="0" stop-color="#e1bb56"/>
      <stop offset=".11" stop-color="#efbd4e"/>
      <stop offset=".26" stop-color="#fbc048"/>
      <stop offset=".42" stop-color="#ffc146"/>
      <stop offset=".72" stop-color="#ffd93e"/>
      <stop offset=".82" stop-color="#ffe23c"/>
      <stop offset=".89" stop-color="#ffe23e"/>
      <stop offset=".92" stop-color="#ffe545"/>
      <stop offset=".95" stop-color="#ffeb53"/>
      <stop offset=".97" stop-color="#fff266"/>
      <stop offset="1" stop-color="#fffc7e"/>
      <stop offset="1" stop-color="#ffff85"/>
    </linearGradient>
    <linearGradient id="_名称未設定グラデーション_1936-2" data-name="名称未設定グラデーション 1936" x1="351.63" y1="107.27" x2="351.63" y2="44.08" xlink:href="#_名称未設定グラデーション_1936"/>
    <linearGradient id="_名称未設定グラデーション_1936-3" data-name="名称未設定グラデーション 1936" x1="423.67" y1="103.03" x2="423.67" y2="53.76" xlink:href="#_名称未設定グラデーション_1936"/>
    <linearGradient id="_名称未設定グラデーション_1936-4" data-name="名称未設定グラデーション 1936" x1="497.93" y1="106.4" x2="497.93" y2="50.27" xlink:href="#_名称未設定グラデーション_1936"/>
    <linearGradient id="_名称未設定グラデーション_1936-5" data-name="名称未設定グラデーション 1936" x1="554.1" y1="105.38" x2="554.1" y2="64.91" xlink:href="#_名称未設定グラデーション_1936"/>
    <linearGradient id="_名称未設定グラデーション_1936-6" data-name="名称未設定グラデーション 1936" x1="620.42" y1="104.87" x2="620.42" y2="51.92" xlink:href="#_名称未設定グラデーション_1936"/>
    <linearGradient id="_名称未設定グラデーション_1936-7" data-name="名称未設定グラデーション 1936" x1="690.81" y1="101.63" x2="690.81" y2="57.07" xlink:href="#_名称未設定グラデーション_1936"/>
  </defs>
  <g id="_レイヤー_1-2" data-name="レイヤー 1">
    <g>
      <path class="cls-5" d="M187.98,46.82c-9.31-9.99-21.95-15.76-35.6-16.24-6.14-.21-11.92.71-17.25,2.51,1.17,2,2.25,4.06,3.23,6.19,3.84-1.17,7.93-1.83,12.23-1.83.51,0,1.02,0,1.54.03,11.81.42,22.74,5.41,30.79,14.05,8.05,8.64,12.26,19.9,11.84,31.71-.86,24.37-21.38,43.51-45.76,42.63-10.6-.38-20.36-5.97-20.49-6.05-.27-.15-.63-.36-1.04-.61-1.53,1.79-3.13,3.5-4.81,5.12.95.61,1.79,1.11,2.42,1.47.46.27,11.37,6.52,23.68,6.95.61.02,1.22.03,1.83.03,27.36,0,50.09-21.76,51.07-49.31.48-13.65-4.38-26.66-13.68-36.65Z"/>
      <path class="cls-10" d="M70.67,141.48c-8.91,0-17.96-1.69-26.71-5.27-17.48-7.16-31.13-20.69-38.43-38.12-7.3-17.42-7.38-36.64-.22-54.13C12.47,26.48,26.01,12.83,43.43,5.53c17.42-7.3,36.64-7.38,54.13-.22,17.48,7.16,31.13,20.69,38.43,38.12,7.3,17.42,7.38,36.64.22,54.13h0c-11.2,27.34-37.67,43.93-65.54,43.93ZM70.76,7.76c-8.25,0-16.49,1.64-24.33,4.93-15.51,6.5-27.56,18.65-33.94,34.21-13.15,32.13,2.28,68.97,34.41,82.12,32.13,13.15,68.97-2.29,82.12-34.41h0c6.37-15.56,6.3-32.68-.2-48.19-6.5-15.51-18.65-27.56-34.21-33.94-7.7-3.15-15.78-4.73-23.86-4.73Z"/>
      <polyline class="cls-4" points="22.28 84.43 38.25 84.43 51.94 44 70.76 97.48 88.48 44 102.13 84.43 119.23 84.43"/>
    </g>
    <g>
      <g>
        <path class="cls-6" d="M248,47.48c.48,1.43.82,2.79,1.02,4.08h17.35v-7.28l9.05.68c-.14.95-.68,1.56-2.38,1.9v4.69h18.09l3.54-3.54,6.33,5.99c-.54.54-1.29.68-2.65.75-1.91,2.24-5.24,5.17-7.89,6.87l-.75-.41c.61-2.11,1.36-5.24,1.84-7.69h-42.38c.07,4.35-1.7,7.28-3.81,8.71-1.9,1.23-4.9.88-5.71-1.16-.68-1.97.48-3.74,2.31-4.63,2.59-1.36,5.24-4.97,5.1-8.98h.95ZM246.44,80.26l6.87,2.86h32.99l3.2-3.47,6.73,5.17c-.41.54-1.43,1.09-2.86,1.36v19.18c-.07.41-3.27,1.63-5.31,1.63h-1.09v-3.88h-34.15v2.18c0,.68-2.86,2.11-5.51,2.11h-.88v-27.14ZM280.04,59.25l3.4-4.08s3.81,2.86,6.26,4.9c-.14.75-.88,1.09-1.77,1.09h-36.8l-.54-1.9h29.45ZM252.29,63.6l6.67,2.72h21.9l3.06-3.26,6.53,4.9c-.41.41-1.36,1.02-2.52,1.22v9.05c-.07.48-3.33,1.63-5.37,1.63h-1.09v-2.59h-22.86v1.43c0,.54-2.86,1.9-5.44,1.9h-.88v-17.01ZM266.51,92.03v-6.94h-13.67v6.94h13.67ZM252.83,101.15h13.67v-7.14h-13.67v7.14ZM281.47,75.3v-7.01h-22.86v7.01h22.86ZM286.98,85.09h-14.15v6.94h14.15v-6.94ZM272.83,94.01v7.14h14.15v-7.14h-14.15Z"/>
        <path class="cls-7" d="M357.31,78.63c-.14.95-.75,1.63-2.52,1.9v4.22h16.73l4.08-5.1s4.56,3.47,7.35,5.99c-.14.68-.88,1.02-1.84,1.02h-24.28c6.26,5.78,17.21,10,26.8,11.56l-.07.82c-2.52.61-4.56,2.72-5.31,5.92-9.93-3.4-18.23-9.66-23.33-18.3h-.14v18.84c0,.61-2.99,1.77-5.65,1.77h-1.22v-16.94c-6.73,6.67-16.53,11.77-27.82,15.1l-.48-.95c9.32-4.35,17.35-11.09,22.38-17.82h-21.5l-.54-1.9h27.96v-7.01l9.39.88ZM339.42,64.89l.2.48v-15.44l6.39,2.72h1.36c.41-2.45.88-6.12,1.16-8.57l9.05,1.36c-.27,1.09-1.16,1.63-2.59,1.7-1.36,1.63-3.33,3.81-4.97,5.51h6.53l3.06-3.4,6.53,5.03c-.41.48-1.36,1.02-2.65,1.23v20.75c-.07.48-3.2,1.77-5.24,1.77h-1.09v-2.99h-11.5v1.9c0,.61-2.59,1.97-5.1,1.97h-.95v-13.06c-2.93,2.59-7.28,6.6-13.4,11.43-.14.88-.61,1.56-1.29,1.9l-4.69-7.07c3.4-1.02,11.36-4.01,19.18-7.21ZM330.58,61.49c-1.16-4.01-4.97-8.78-8.03-11.7l.61-.48c18.64,3.61,13.88,16.39,7.41,12.18ZM357.18,62.78v-8.16h-11.5v8.16h11.5ZM345.68,73.05h11.5v-8.37h-11.5v8.37ZM376.9,77c-2.52-4.01-8.57-8.98-13.06-11.63l.54-.68c21.63,1.5,19.66,15.03,12.52,12.31ZM381.73,53.67c-.34.54-1.09.61-2.18.34-3.2,2.25-9.52,5.78-13.94,8.3l-.68-.82c2.86-3.74,6.6-9.52,8.44-12.99l8.37,5.17Z"/>
      </g>
      <g>
        <path class="cls-8" d="M413.18,66.79c7.25,2.22,12.97,4.96,17.35,7.5,4.13-6.23,7.44-12.9,7.44-15,0-1.91-1.78-3.11-4-4.45l.44-1.08c1.91.06,4.13.13,5.91.89,2.8,1.21,5.85,4.07,5.85,6.29,0,1.34-1.59,1.59-2.8,3.62-1.27,2.16-4.51,7.82-8.07,12.78,4.89,3.43,10.23,8.65,10.36,12.59.06,2.29-1.34,3.62-3.31,3.62-3.18,0-3.94-4.58-10.93-11.25-6.99,8.14-16.97,16.27-29.49,20.72l-.76-1.21c10.74-6.29,19.71-14.87,26.19-23.14-3.43-2.86-8.39-6.61-14.94-10.55l.76-1.34Z"/>
        <path class="cls-1" d="M475.35,105.19c14.49-9.73,18.82-23.97,18.82-28.29,0-.76-.19-1.53-.76-2.29-4.7.57-9.85,1.59-11.82,2.22-2.1.57-4.13,1.53-5.78,1.59-1.91,0-4.96-2.8-5.66-4.77-.38-1.02-.44-2.35-.38-3.75l.89-.38c1.46,1.59,2.67,2.99,4.45,2.99,4.32,0,21.93-2.61,31.85-3.62,4.39-.44,5.53-1.21,6.36-1.21,3.37,0,7.37,1.78,7.37,4.07,0,1.65-.7,2.16-2.29,2.16-1.27,0-4.13-.57-7.5-.57-2.92,0-7.5.19-12.4.7,1.97,1.21,3.56,2.48,3.56,3.69,0,1.46-1.59,1.97-2.73,4.58-2.8,6.99-8.14,17.04-22.88,24.09l-1.08-1.21ZM486.85,62.73c-3.62,0-5.59-2.16-7.75-6.17l.76-.7c2.54,1.72,4.51,2.1,6.61,2.1,4.26,0,8.96-1.02,11.82-1.72,3.43-.83,4.32-1.78,5.4-1.78,3.56,0,6.04,1.21,6.04,3.31,0,1.08-.7,1.84-2.73,2.29-4.96,1.02-14.68,2.67-20.15,2.67ZM511.07,56.3l.76-.89c3.11,1.02,5.78,2.35,7.44,3.81,1.4,1.33,1.97,2.35,1.97,3.69-.06,1.08-.89,1.97-1.97,1.91-1.02,0-1.59-1.08-2.67-2.61-1.27-1.59-2.73-3.75-5.53-5.91ZM515.96,51.16l.64-.89c3.31.95,5.59,2.03,7.18,3.24,1.65,1.21,2.35,2.48,2.35,3.81,0,1.14-.57,2.03-1.84,2.03-1.14-.06-1.72-1.14-2.92-2.67-1.33-1.72-2.73-3.56-5.4-5.53Z"/>
        <path class="cls-3" d="M560.64,64.95c1.27-.06,2.67-.13,4.13.32,2.54.76,5.4,3.43,5.4,5.09,0,1.4-1.08,1.4-2.42,2.73-1.72,1.78-4.13,4.32-6.99,7.06,1.53,1.08,2.73,2.03,2.73,2.92,0,.76-.44,1.65-.51,2.99-.25,6.61.13,13.54.13,16.08,0,1.97-.83,3.24-2.54,3.24-2.42,0-3.56-2.48-3.56-4.83,0-.89.38-1.97.51-3.56.57-4.58.64-10.3.57-12.46,0-.7-.13-1.27-.32-1.78-3.37,2.73-10.68,8.14-19.13,10.93l-.64-.95c12.4-7.12,25.11-21.04,25.11-24.35,0-.95-1.46-2.03-2.73-2.61l.25-.83Z"/>
        <path class="cls-2" d="M619.75,91.9c3.3,1.34,6.48,2.42,7.88,2.67,1.65.32,2.29.19,3.18-.89,3.75-4.89,6.17-19.01,6.17-23.07,0-.51-.25-.76-.7-.76-2.86,0-7.56.64-11.51,1.21-2.29,8.01-8.07,24.54-27.84,33.82l-.95-1.14c14.37-10.62,19.64-22.18,22.57-31.66-3.31.57-7.37,1.4-9.15,1.91-1.91.51-2.8,1.46-4.2,1.46-1.91,0-4.77-3.37-5.47-5.28-.57-1.4-.45-2.86-.25-4.51l1.08-.25c1.14,1.84,2.23,3.75,4.26,3.75,1.78,0,8.2-.7,14.94-1.46.83-3.5,1.59-7.82,1.59-9.6.06-1.27-.13-1.84-1.08-2.29-1.08-.63-2.67-1.08-3.88-1.4l-.06-1.14c1.46-.51,3.5-1.34,5.02-1.34,3.12.06,8.2,2.99,8.2,4.83s-1.65,1.78-2.29,4.32l-1.34,5.85,8.77-1.08c1.78-.19,2.48-1.91,3.75-1.91,1.72,0,6.42,3.81,6.42,5.59,0,1.53-1.97,1.46-2.29,3.62-1.02,6.99-2.8,16.02-6.42,23.01-1.65,3.37-5.15,6.04-8.2,6.04-1.59,0-2.16-.7-2.67-2.48-.57-2.29-2.29-3.56-6.1-6.74l.57-1.08Z"/>
        <path class="cls-9" d="M672.12,65.27c1.27-.45,2.73-.89,4.39-.83,2.67.13,7.88,2.92,7.88,5.21,0,1.53-1.34,2.42-1.65,4.01-2.1,10.3-8.58,20.98-21.17,27.97l-.95-1.14c9.85-8.39,16.15-21.8,16.15-30.32,0-2.03-2.73-3.05-4.64-3.69v-1.21ZM689.99,57.07c3.05,0,7.82,2.86,7.82,4.7,0,1.53-1.46,1.72-1.72,3.94-.45,3.37-.89,18.43-.83,23.07,0,.89.45,1.14,1.21.83,8.01-3.31,16.72-9.66,23.39-16.15l1.14.89c-5.4,8.39-14.49,16.21-22.69,21.36-1.46.95-2.48,2.92-4.07,2.92-1.97,0-5.21-4.01-5.21-5.59,0-1.27.76-1.97,1.02-4.45.25-3.31.57-19.96.19-26.06-.06-1.72-1.78-2.61-4.89-3.11l-.06-1.14c1.84-.89,3.12-1.21,4.7-1.21Z"/>
      </g>
    </g>
  </g>
</svg>