<?xml version="1.0" encoding="UTF-8"?>
<svg id="_レイヤー_2" data-name="レイヤー 2" xmlns="http://www.w3.org/2000/svg" xmlns:xlink="http://www.w3.org/1999/xlink" viewBox="0 0 727.22 145.43">
  <defs>
    <style>
      .cls-1 {
        fill: url(#_名称未設定グラデーション_2241);
      }

      .cls-2 {
        fill: url(#_名称未設定グラデーション_1732);
      }

      .cls-3 {
        fill: url(#_名称未設定グラデーション_1732-2);
      }

      .cls-4 {
        fill: url(#_名称未設定グラデーション_2241-2);
      }

      .cls-5 {
        fill: url(#_名称未設定グラデーション_2241-7);
      }

      .cls-6 {
        fill: url(#_名称未設定グラデーション_2241-5);
      }

      .cls-7 {
        fill: url(#_名称未設定グラデーション_2241-10);
      }

      .cls-8 {
        fill: url(#_名称未設定グラデーション_2241-6);
      }

      .cls-9 {
        fill: url(#_名称未設定グラデーション_2241-4);
      }

      .cls-10 {
        fill: url(#_名称未設定グラデーション_2241-3);
      }

      .cls-11 {
        fill: url(#_名称未設定グラデーション_2241-9);
      }

      .cls-12 {
        fill: url(#_名称未設定グラデーション_1459);
      }

      .cls-13 {
        fill: url(#_名称未設定グラデーション_2241-8);
      }
    </style>
    <linearGradient id="_名称未設定グラデーション_2241" data-name="名称未設定グラデーション 2241" x1="273.77" y1="115.59" x2="273.77" y2="48.99" gradientUnits="userSpaceOnUse">
      <stop offset="0" stop-color="#d37b2e"/>
      <stop offset=".12" stop-color="#da8437"/>
      <stop offset=".31" stop-color="#f09c4f"/>
      <stop offset=".42" stop-color="#ffad60"/>
      <stop offset=".84" stop-color="#ffb74a"/>
      <stop offset=".89" stop-color="#ffb74c"/>
      <stop offset=".91" stop-color="#ffbb53"/>
      <stop offset=".93" stop-color="#ffc161"/>
      <stop offset=".95" stop-color="#ffc974"/>
      <stop offset=".96" stop-color="#ffd38c"/>
      <stop offset=".98" stop-color="#ffe0aa"/>
      <stop offset=".99" stop-color="#fff0cd"/>
      <stop offset="1" stop-color="ivory"/>
    </linearGradient>
    <linearGradient id="_名称未設定グラデーション_2241-2" data-name="名称未設定グラデーション 2241" x1="320.39" y1="116.84" x2="320.39" y2="67.36" xlink:href="#_名称未設定グラデーション_2241"/>
    <linearGradient id="_名称未設定グラデーション_2241-3" data-name="名称未設定グラデーション 2241" x1="368.97" x2="368.97" y2="66.17" xlink:href="#_名称未設定グラデーション_2241"/>
    <linearGradient id="_名称未設定グラデーション_2241-4" data-name="名称未設定グラデーション 2241" x1="408.92" y1="116.84" x2="408.92" y2="66.17" xlink:href="#_名称未設定グラデーション_2241"/>
    <linearGradient id="_名称未設定グラデーション_2241-5" data-name="名称未設定グラデーション 2241" x1="465.82" x2="465.82" y2="43.52" xlink:href="#_名称未設定グラデーション_2241"/>
    <linearGradient id="_名称未設定グラデーション_2241-6" data-name="名称未設定グラデーション 2241" x1="516.66" y1="116.84" x2="516.66" y2="67.36" xlink:href="#_名称未設定グラデーション_2241"/>
    <linearGradient id="_名称未設定グラデーション_2241-7" data-name="名称未設定グラデーション 2241" x1="573.61" x2="573.61" xlink:href="#_名称未設定グラデーション_2241"/>
    <linearGradient id="_名称未設定グラデーション_2241-8" data-name="名称未設定グラデーション 2241" x1="610.22" x2="610.22" y2="43.52" xlink:href="#_名称未設定グラデーション_2241"/>
    <linearGradient id="_名称未設定グラデーション_2241-9" data-name="名称未設定グラデーション 2241" x1="651.16" x2="651.16" y2="66.17" xlink:href="#_名称未設定グラデーション_2241"/>
    <linearGradient id="_名称未設定グラデーション_2241-10" data-name="名称未設定グラデーション 2241" x1="705.32" y1="116.84" x2="705.32" y2="66.17" xlink:href="#_名称未設定グラデーション_2241"/>
    <linearGradient id="_名称未設定グラデーション_1732" data-name="名称未設定グラデーション 1732" x1="181.54" y1="126.53" x2="128.52" y2="34.7" gradientUnits="userSpaceOnUse">
      <stop offset="0" stop-color="#d7b182"/>
      <stop offset=".26" stop-color="#eeb760"/>
      <stop offset=".62" stop-color="#f7da90"/>
      <stop offset=".72" stop-color="#f7da92"/>
      <stop offset=".79" stop-color="#f7dd9b"/>
      <stop offset=".85" stop-color="#f8e2aa"/>
      <stop offset=".9" stop-color="#fae9bf"/>
      <stop offset=".95" stop-color="#fcf2da"/>
      <stop offset="1" stop-color="#fefdfb"/>
      <stop offset="1" stop-color="#fff"/>
    </linearGradient>
    <linearGradient id="_名称未設定グラデーション_1732-2" data-name="名称未設定グラデーション 1732" x1="128.96" y1="103.97" x2="98.68" y2="51.53" xlink:href="#_名称未設定グラデーション_1732"/>
    <linearGradient id="_名称未設定グラデーション_1459" data-name="名称未設定グラデーション 1459" x1="100.57" y1="322.87" x2="-11.18" y2="229.89" gradientTransform="translate(136.04 -199.99) rotate(22.27)" gradientUnits="userSpaceOnUse">
      <stop offset="0" stop-color="#d37126"/>
      <stop offset=".1" stop-color="#ec9347"/>
      <stop offset=".19" stop-color="#ffad60"/>
      <stop offset=".57" stop-color="#ffb74a"/>
      <stop offset=".74" stop-color="#ffb74b"/>
      <stop offset=".81" stop-color="#ffba52"/>
      <stop offset=".85" stop-color="#ffbf5e"/>
      <stop offset=".89" stop-color="#ffc76f"/>
      <stop offset=".92" stop-color="#ffd085"/>
      <stop offset=".95" stop-color="#ffdca0"/>
      <stop offset=".97" stop-color="#ffeac0"/>
      <stop offset=".99" stop-color="#fffae5"/>
      <stop offset="1" stop-color="ivory"/>
    </linearGradient>
  </defs>
  <g id="_レイヤー_1-2" data-name="レイヤー 1">
    <g>
      <g>
        <path class="cls-1" d="M264.76,115.59h-12.19V48.99h42.41v10.2h-30.22v17.22h25.84v10.2h-25.84v28.97Z"/>
        <path class="cls-4" d="M320.39,116.84c-4.84,0-8.86-.82-12.05-2.46-3.19-1.64-5.59-3.86-7.22-6.65-.86-1.49-1.5-3.14-1.92-4.93-.41-1.79-.62-3.78-.62-5.97v-29.47h11.8v28.22c0,1.63.11,3.03.35,4.21.23,1.18.58,2.2,1.05,3.06.8,1.46,1.92,2.55,3.39,3.26,1.46.71,3.2,1.07,5.23,1.07,2.12,0,3.94-.4,5.45-1.19,1.51-.8,2.65-2.01,3.41-3.63.76-1.56,1.15-3.73,1.15-6.52v-28.47h11.8v29.47c0,3.92-.68,7.22-2.04,9.91-.76,1.53-1.75,2.91-2.96,4.16-1.21,1.24-2.64,2.31-4.28,3.18-1.64.88-3.5,1.56-5.57,2.04-2.08.48-4.39.72-6.94.72Z"/>
        <path class="cls-10" d="M383.31,76.72h-1c-3.62,0-6.8.54-9.53,1.62s-4.85,2.73-6.34,4.95v32.31h-11.8v-48.23h9.76l1.1,6.72h.2c1.39-2.45,3.31-4.39,5.75-5.8,2.44-1.41,5.37-2.12,8.79-2.12,1.19,0,2.22.07,3.09.2v10.35Z"/>
        <path class="cls-9" d="M418.65,110.47h-.2c-.66.7-1.46,1.41-2.39,2.14-.93.73-1.99,1.42-3.18,2.07-1.2.65-2.52,1.17-3.98,1.57-1.46.4-3.04.6-4.73.6-2.29,0-4.43-.36-6.42-1.07-1.99-.71-3.7-1.74-5.13-3.09s-2.55-2.97-3.36-4.88c-.81-1.91-1.22-4.04-1.22-6.4,0-2.59.47-4.91,1.42-6.97.95-2.06,2.27-3.8,3.96-5.23,1.69-1.43,3.72-2.51,6.07-3.26,2.35-.75,4.96-1.12,7.81-1.12,2.09,0,4.02.13,5.77.4,1.76.27,3.3.58,4.63.95v-1.94c0-1.13-.19-2.21-.57-3.26-.38-1.04-.99-1.97-1.84-2.79-.85-.81-1.95-1.46-3.31-1.94s-3.02-.72-4.98-.72c-2.39,0-4.78.27-7.17.8-2.39.53-4.98,1.33-7.77,2.39v-9.21c2.42-1.06,5-1.87,7.71-2.44,2.72-.56,5.58-.86,8.56-.9,3.52,0,6.6.43,9.23,1.29s4.84,2.05,6.62,3.56,3.1,3.29,3.98,5.35c.88,2.06,1.32,4.3,1.32,6.72v18.17c0,3.19.03,5.92.1,8.21.07,2.29.13,4.33.2,6.12h-10.65l-.5-5.13ZM417.71,95.04c-1.13-.26-2.42-.5-3.88-.72s-2.94-.32-4.43-.32c-2.89,0-5.17.57-6.84,1.72-1.68,1.14-2.51,2.9-2.51,5.25,0,1.1.19,2.05.57,2.86.38.81.9,1.48,1.54,2.02.65.53,1.4.93,2.26,1.19.86.27,1.78.4,2.74.4,1.19,0,2.32-.16,3.38-.47,1.06-.31,2.04-.71,2.94-1.19.89-.48,1.7-1.02,2.41-1.62s1.32-1.18,1.82-1.74v-7.37Z"/>
        <path class="cls-6" d="M443.24,43.52h11.8v43.41h.25l18.37-19.56h14.58l-21.16,22.65,21.3,25.58h-14.29l-18.87-22.45h-.2v22.45h-11.8V43.52Z"/>
        <path class="cls-8" d="M516.66,116.84c-4.84,0-8.86-.82-12.05-2.46-3.19-1.64-5.59-3.86-7.22-6.65-.86-1.49-1.5-3.14-1.92-4.93-.41-1.79-.62-3.78-.62-5.97v-29.47h11.8v28.22c0,1.63.11,3.03.35,4.21.23,1.18.58,2.2,1.05,3.06.8,1.46,1.92,2.55,3.39,3.26,1.46.71,3.2,1.07,5.23,1.07,2.12,0,3.94-.4,5.45-1.19s2.65-2.01,3.41-3.63c.76-1.56,1.15-3.73,1.15-6.52v-28.47h11.8v29.47c0,3.92-.68,7.22-2.04,9.91-.76,1.53-1.75,2.91-2.96,4.16-1.21,1.24-2.64,2.31-4.28,3.18-1.64.88-3.5,1.56-5.57,2.04-2.08.48-4.39.72-6.94.72Z"/>
        <path class="cls-5" d="M564.6,115.59h-12.19V48.99h42.41v10.2h-30.22v17.22h25.84v10.2h-25.84v28.97Z"/>
        <path class="cls-13" d="M604.02,43.52h12.39v12.79h-12.39v-12.79ZM604.32,67.36h11.8v48.23h-11.8v-48.23Z"/>
        <path class="cls-11" d="M640.21,74.08h.2c.7-1,1.58-1.97,2.64-2.94,1.06-.96,2.27-1.81,3.63-2.54s2.86-1.32,4.5-1.77c1.64-.45,3.39-.67,5.25-.67,1.76,0,3.46.2,5.1.6,1.64.4,3.14,1.02,4.51,1.87,1.36.85,2.56,1.94,3.61,3.29s1.87,2.94,2.46,4.8c.33,1.03.55,2.15.67,3.36.11,1.21.17,2.61.17,4.21v31.31h-11.8v-29.47c0-1.29-.05-2.41-.15-3.33-.1-.93-.28-1.74-.55-2.44-.6-1.53-1.5-2.62-2.71-3.29-1.21-.66-2.68-1-4.4-1-2.29,0-4.49.54-6.6,1.62-2.11,1.08-3.97,2.65-5.6,4.7v33.2h-11.8v-48.23h9.76l1.1,6.72Z"/>
        <path class="cls-7" d="M710.74,107.33c2.29,0,4.68-.23,7.17-.7,2.49-.46,5.01-1.13,7.57-1.99v9.41c-1.53.66-3.87,1.29-7.02,1.89s-6.42.9-9.81.9-6.66-.44-9.73-1.32c-3.07-.88-5.75-2.3-8.04-4.26s-4.11-4.5-5.45-7.62c-1.34-3.12-2.02-6.9-2.02-11.35s.63-8.21,1.89-11.5c1.26-3.29,2.95-6.01,5.08-8.16s4.56-3.78,7.29-4.85,5.57-1.62,8.49-1.62,5.87.47,8.44,1.39c2.57.93,4.79,2.39,6.67,4.38s3.33,4.55,4.38,7.69c1.05,3.14,1.57,6.84,1.57,11.12-.03,1.66-.08,3.07-.15,4.23h-31.61c.16,2.22.66,4.12,1.49,5.7s1.92,2.85,3.26,3.83c1.35.98,2.91,1.69,4.7,2.14s3.73.67,5.82.67ZM706.01,75.37c-1.49,0-2.82.27-3.98.82-1.16.55-2.17,1.29-3.01,2.24-.84.95-1.52,2.05-2.02,3.31-.5,1.26-.83,2.61-.99,4.03h18.96c0-1.43-.19-2.77-.57-4.03-.38-1.26-.94-2.36-1.69-3.31-.75-.95-1.68-1.69-2.79-2.24s-2.41-.82-3.91-.82Z"/>
      </g>
      <g>
        <g>
          <path class="cls-2" d="M190.84,45.15c-9.79-10.5-23.07-16.57-37.42-17.07-6.29-.23-12.23.69-17.72,2.49,2.52,3.78,4.68,7.79,6.49,11.94,3.4-.85,6.99-1.26,10.76-1.13,10.79.38,20.79,4.95,28.16,12.85,7.36,7.9,11.21,18.2,10.82,28.99h0c-.38,10.79-4.94,20.79-12.85,28.16-7.9,7.36-18.2,11.2-28.99,10.82-6.73-.24-13.13-2.81-16.41-4.36-2.73,3.7-5.79,7.12-9.13,10.25.07.04.15.09.21.12.07.04.15.09.27.15l1.28.72h.08c3.73,1.91,12.92,6.04,23.24,6.41.65.02,1.3.03,1.95.03,13.63,0,26.56-5.08,36.59-14.42,10.5-9.79,16.57-23.07,17.07-37.42.51-14.35-4.6-28.03-14.39-38.53Z"/>
          <path class="cls-3" d="M97.82,79.73c-.7,12.22,3.77,25.49,11.65,35.49,3.43-2.96,6.48-6.33,9.1-10.05-5.05-7.23-7.94-16.43-7.47-24.68.6-10.35,5.65-20.93,13.79-28.48-1.67-4.2-3.83-8.19-6.46-11.89-12.14,10.04-19.77,25-20.61,39.61Z"/>
        </g>
        <path class="cls-12" d="M72.68,145.43c-9.32,0-18.65-1.82-27.54-5.46C8.05,124.79-9.76,82.26,5.42,45.18,12.77,27.21,26.69,13.19,44.59,5.69c17.9-7.5,37.66-7.58,55.62-.23,37.09,15.18,54.9,57.71,39.72,94.79-7.35,17.97-21.27,31.99-39.17,39.49-9.04,3.79-18.56,5.69-28.08,5.69ZM72.67,13.31c-7.78,0-15.55,1.55-22.94,4.65-14.63,6.13-25.99,17.59-32,32.26-12.4,30.3,2.15,65.04,32.45,77.44,14.68,6.01,30.81,5.94,45.44-.19,14.63-6.13,25.99-17.59,32-32.26h0c12.4-30.3-2.15-65.04-32.45-77.44-7.26-2.97-14.88-4.46-22.5-4.46Z"/>
      </g>
    </g>
  </g>
</svg>