<?xml version="1.0" encoding="UTF-8"?>
<svg id="_レイヤー_2" data-name="レイヤー 2" xmlns="http://www.w3.org/2000/svg" xmlns:xlink="http://www.w3.org/1999/xlink" viewBox="0 0 722.84 145.43">
  <defs>
    <style>
      .cls-1 {
        fill: url(#_名称未設定グラデーション_2368);
      }

      .cls-2 {
        fill: url(#_名称未設定グラデーション_2254);
      }

      .cls-3 {
        fill: url(#_名称未設定グラデーション_2254-3);
      }

      .cls-4 {
        fill: url(#_名称未設定グラデーション_2254-5);
      }

      .cls-5 {
        fill: url(#_名称未設定グラデーション_2254-6);
      }

      .cls-6 {
        fill: url(#_名称未設定グラデーション_2254-2);
      }

      .cls-7 {
        fill: url(#_名称未設定グラデーション_2368-2);
      }

      .cls-8 {
        fill: url(#_名称未設定グラデーション_2254-4);
      }

      .cls-9 {
        fill: url(#_名称未設定グラデーション_2343);
      }
    </style>
    <linearGradient id="_名称未設定グラデーション_2254" data-name="名称未設定グラデーション 2254" x1="282.37" y1="117.46" x2="282.37" y2="45.42" gradientUnits="userSpaceOnUse">
      <stop offset="0" stop-color="#d37b2e"/>
      <stop offset=".12" stop-color="#da8437"/>
      <stop offset=".31" stop-color="#f09c4f"/>
      <stop offset=".42" stop-color="#ffad60"/>
      <stop offset=".84" stop-color="#ffb74a"/>
      <stop offset=".89" stop-color="#ffb74c"/>
      <stop offset=".91" stop-color="#ffbb53"/>
      <stop offset=".93" stop-color="#ffc161"/>
      <stop offset=".95" stop-color="#ffc974"/>
      <stop offset=".96" stop-color="#ffd38c"/>
      <stop offset=".98" stop-color="#ffe0aa"/>
      <stop offset=".99" stop-color="#fff0cd"/>
      <stop offset="1" stop-color="ivory"/>
    </linearGradient>
    <linearGradient id="_名称未設定グラデーション_2254-2" data-name="名称未設定グラデーション 2254" x1="373.1" y1="117.08" x2="373.1" y2="45.5" xlink:href="#_名称未設定グラデーション_2254"/>
    <linearGradient id="_名称未設定グラデーション_2254-3" data-name="名称未設定グラデーション 2254" x1="464.01" y1="113.45" x2="464.01" y2="59.29" xlink:href="#_名称未設定グラデーション_2254"/>
    <linearGradient id="_名称未設定グラデーション_2254-4" data-name="名称未設定グラデーション 2254" x1="536.58" y1="115" x2="536.58" y2="70.4" xlink:href="#_名称未設定グラデーション_2254"/>
    <linearGradient id="_名称未設定グラデーション_2254-5" data-name="名称未設定グラデーション 2254" x1="607.14" y1="114.5" x2="607.14" y2="53.81" xlink:href="#_名称未設定グラデーション_2254"/>
    <linearGradient id="_名称未設定グラデーション_2254-6" data-name="名称未設定グラデーション 2254" x1="694.6" y1="111.2" x2="694.6" y2="60.35" xlink:href="#_名称未設定グラデーション_2254"/>
    <linearGradient id="_名称未設定グラデーション_2368" data-name="名称未設定グラデーション 2368" x1="181.54" y1="126.53" x2="128.52" y2="34.7" gradientUnits="userSpaceOnUse">
      <stop offset="0" stop-color="#d7b182"/>
      <stop offset=".26" stop-color="#eeb760"/>
      <stop offset=".62" stop-color="#f7da90"/>
      <stop offset=".72" stop-color="#f7da92"/>
      <stop offset=".79" stop-color="#f7dd9b"/>
      <stop offset=".85" stop-color="#f8e2aa"/>
      <stop offset=".9" stop-color="#fae9bf"/>
      <stop offset=".95" stop-color="#fcf2da"/>
      <stop offset="1" stop-color="#fefdfb"/>
      <stop offset="1" stop-color="#fff"/>
    </linearGradient>
    <linearGradient id="_名称未設定グラデーション_2368-2" data-name="名称未設定グラデーション 2368" x1="128.96" y1="103.97" x2="98.68" y2="51.53" xlink:href="#_名称未設定グラデーション_2368"/>
    <linearGradient id="_名称未設定グラデーション_2343" data-name="名称未設定グラデーション 2343" x1="175.8" y1="308.06" x2="64.05" y2="215.09" gradientTransform="translate(60.81 -214.8) rotate(22.27)" gradientUnits="userSpaceOnUse">
      <stop offset="0" stop-color="#d37126"/>
      <stop offset=".1" stop-color="#ec9347"/>
      <stop offset=".19" stop-color="#ffad60"/>
      <stop offset=".57" stop-color="#ffb74a"/>
      <stop offset=".74" stop-color="#ffb74b"/>
      <stop offset=".81" stop-color="#ffba52"/>
      <stop offset=".85" stop-color="#ffbf5e"/>
      <stop offset=".89" stop-color="#ffc76f"/>
      <stop offset=".92" stop-color="#ffd085"/>
      <stop offset=".95" stop-color="#ffdca0"/>
      <stop offset=".97" stop-color="#ffeac0"/>
      <stop offset=".99" stop-color="#fffae5"/>
      <stop offset="1" stop-color="ivory"/>
    </linearGradient>
  </defs>
  <g id="_レイヤー_1-2" data-name="レイヤー 1">
    <g>
      <g>
        <g>
          <path class="cls-2" d="M257.7,48.67c.76,1.97,1.29,3.78,1.59,5.45h16.87v-8.7l14.07.98c-.08,1.06-.61,1.82-2.72,2.19v5.52h16.04l5.15-5.22,8.93,8.48c-.61.68-1.36.83-2.95.98-2.8,2.35-7.42,5.37-11.12,7.04l-.53-.45c-.3.08-.68.15-1.06.15h-41.62l-.61-2.12h30.95l4.69-5.67s4.69,3.33,7.95,5.98c.38-2.19.68-4.84.91-7.04h-44.72c.3,4.99-1.59,8.55-4.24,10.14-2.65,1.59-6.81.61-7.95-2.8-.91-3.1.98-5.6,3.71-6.81,2.5-1.29,5.75-4.54,5.75-8.1h.91ZM254.98,85.15l11.43,4.39h31.4l4.69-5.22,9.84,7.42c-.45.61-1.44,1.29-3.03,1.66v20.89c-.08.53-5.45,2.35-8.93,2.35h-1.82v-4.84h-32.84v2.35c0,.98-4.77,3.33-9.23,3.33h-1.51v-32.31ZM261.56,66.76l11.05,4.16h19.3l4.62-4.92,9.61,7.04c-.45.53-1.29,1.21-2.72,1.51v8.85c-.08.53-5.52,2.19-8.85,2.19h-1.89v-2.57h-20.51v.76c0,.91-4.84,3.1-9.16,3.1h-1.44v-20.13ZM276.47,99.52v-7.87h-10.75v7.87h10.75ZM265.72,109.66h10.75v-8.02h-10.75v8.02ZM292.66,80.91v-7.87h-20.51v7.87h20.51ZM298.56,91.66h-11.5v7.87h11.5v-7.87ZM287.06,101.64v8.02h11.5v-8.02h-11.5Z"/>
          <path class="cls-6" d="M366.82,91.66v-8.32c-1.59.83-4.31,1.74-6.96,1.74h-1.44v-13.47c-2.8,3.1-6.81,7.26-12.33,12.41-.3,1.06-1.06,1.89-1.89,2.19l-6.81-11.2c3.71-.76,12.33-3.03,21.04-5.6v-17.48l9.23,3.63c.15-2.95.3-7.11.3-10.06l13.55,1.82c-.3,1.29-1.29,1.97-2.95,2.12-1.97,1.89-5.15,4.62-7.49,6.51h5.37l4.54-4.92,9.38,7.04c-.45.53-1.29,1.14-2.65,1.36v9.08c25.5-1.06,21.34,18.09,10.75,14.07-2.35-4.39-6.81-9.23-10.75-12.49v11.05c-.08.61-5.22,2.5-8.78,2.5h-1.82v-3.56h-8.78v1.89c0,.3-.45.76-1.36,1.21l14.3,1.21c-.15,1.06-.68,1.82-2.8,2.12v5.15h14.3l5.6-7.11s6.36,4.77,10.22,8.02c-.23.83-1.06,1.21-2.19,1.21h-25.73c6.66,4.99,18.24,8.02,28.45,8.85l-.08.91c-4.09,1.21-7.11,4.92-8.25,10.37-10.97-3.86-17.78-10.22-22.32-19.83v20.43c0,.76-5.07,2.57-9.69,2.57h-1.97v-15.82c-7.49,5.98-17.71,10.44-29.13,13.47l-.45-.76c9.38-4.99,17.18-12.94,21.87-20.2h-21.41l-.61-2.12h29.74ZM346.47,65.62c-.83-4.99-3.78-10.29-6.51-13.92l.53-.38c24.37,2.57,15.74,21.19,5.98,14.3ZM377.12,66.91v-8.85h-8.78v8.85h8.78ZM368.34,77.96h8.78v-8.93h-8.78v8.93ZM407.91,58.21c-.3.6-.98.68-2.27.38-3.78,2.35-11.65,5.75-17.03,7.95l-.53-.76c2.57-4.24,5.67-11.43,7.04-15.44l12.79,7.87Z"/>
        </g>
        <g>
          <path class="cls-3" d="M471.4,61.68c3.45-.77,4.29-2.39,6.61-2.39,3.87,0,12.24,7.46,12.24,10.27s-3.59,4.29-4.78,6.54c-9,16.95-22.01,30.31-45.86,37.35l-.7-1.27c18.71-9.99,33.27-28.84,36.22-43.75.07-.35-.14-.63-.49-.63-5.63,0-18.85,3.38-22.86,4.64-1.48.49-3.45,2.25-5.2,2.25-3.66,0-7.74-5.27-8.44-8.37-.49-2.11-.35-3.52-.28-5.35l.84-.35c2.32,2.11,4.22,3.59,6.89,3.59,6.47,0,21.8-1.62,25.81-2.53Z"/>
          <path class="cls-8" d="M530.05,84.33c.91-.49,2.39-.91,4.01-.91,3.16-.07,5.7.7,7.24,1.41,2.39-2.25,4.08-4.64,4.99-6.82.49-1.2.14-1.55-.84-1.55-1.9,0-14,3.17-18.64,4.71-2.11.7-3.45,2.18-5.42,2.18-2.46,0-5.98-3.31-6.82-6.05-.35-1.13-.56-2.95-.14-4.71l.49-.21c1.9,1.76,2.67,1.97,4.43,1.97,6.19,0,20.61-1.76,25.04-2.39,2.6-.35,3.73-1.55,5.42-1.55,2.53,0,9.14,6.26,9.14,9.21,0,2.39-3.66,2.53-4.99,3.09-2.46,1.05-6.05,2.53-10.13,4.15.21.42.21.91,0,1.41-4.57,10.76-13.15,21.38-26.94,26.73l-.56-.7c10.06-7.6,17.51-22.01,17.51-25.46,0-1.76-1.69-2.88-3.8-3.94v-.56Z"/>
          <path class="cls-4" d="M615.3,54.02c2.11-.21,4.71-.42,7.17.28,4.43,1.27,9.21,5.63,9.21,8.51,0,2.46-1.97,2.46-3.87,4.36-2.39,2.39-5.91,5.98-9.92,9.71,2.53,1.76,4.43,3.24,4.43,4.78,0,1.41-.63,2.81-.7,4.99-.28,9.07.35,18.85.35,22.15s-1.69,5.7-4.85,5.7c-4.36,0-6.26-3.73-6.26-7.88,0-1.41.42-3.17.7-5.42.98-8.02.91-13.93.91-17.09,0-.91-.07-1.69-.28-2.39-5.27,4.22-16.6,12.03-28.91,15.61l-.7-1.2c13.43-7.88,29.33-23.84,34.67-32.56,1.2-1.9,1.83-3.52,1.83-4.57,0-1.41-2.39-3.02-4.08-3.87l.28-1.13Z"/>
          <path class="cls-5" d="M689.99,72.94c0,3.02-2.32,5.77-5.7,5.77-2.88,0-4.57-1.55-6.33-4.15-3.31-4.92-4.57-7.6-11.6-13.22l.56-.98c10.55.56,23.07,4.36,23.07,12.59ZM722.84,68.29c-7.74,15.61-20.4,28.48-37.14,38.61-2.74,1.69-3.66,4.29-5.98,4.29-4.71,0-9.92-4.64-11.39-7.74-.91-1.9-1.62-4.92-1.55-7.39l.91-.56c1.41,1.34,4.01,4.22,6.75,4.22,8.65,0,37.14-19.41,47.26-32.21l1.12.77Z"/>
        </g>
      </g>
      <g>
        <g>
          <path class="cls-1" d="M190.84,45.15c-9.79-10.5-23.07-16.57-37.42-17.07-6.29-.23-12.23.69-17.72,2.49,2.52,3.78,4.68,7.79,6.49,11.94,3.4-.85,6.99-1.26,10.76-1.13,10.79.38,20.79,4.95,28.16,12.85,7.36,7.9,11.21,18.2,10.82,28.99h0c-.38,10.79-4.94,20.79-12.85,28.16-7.9,7.36-18.2,11.2-28.99,10.82-6.73-.24-13.13-2.81-16.41-4.36-2.73,3.7-5.79,7.12-9.13,10.25.07.04.15.09.21.12.07.04.15.09.27.15l1.28.72h.08c3.73,1.91,12.92,6.04,23.24,6.41.65.02,1.3.03,1.95.03,13.63,0,26.56-5.08,36.59-14.42,10.5-9.79,16.57-23.07,17.07-37.42.51-14.35-4.6-28.03-14.39-38.53Z"/>
          <path class="cls-7" d="M97.82,79.73c-.7,12.22,3.77,25.49,11.65,35.49,3.43-2.96,6.48-6.33,9.1-10.05-5.05-7.23-7.94-16.43-7.47-24.68.6-10.35,5.65-20.93,13.79-28.48-1.67-4.2-3.83-8.19-6.46-11.89-12.14,10.04-19.77,25-20.61,39.61Z"/>
        </g>
        <path class="cls-9" d="M72.68,145.43c-9.32,0-18.65-1.82-27.54-5.46C8.05,124.79-9.76,82.26,5.42,45.18,12.77,27.21,26.69,13.19,44.59,5.69c17.9-7.5,37.66-7.58,55.62-.23,37.09,15.18,54.9,57.71,39.72,94.79-7.35,17.97-21.27,31.99-39.17,39.49-9.04,3.79-18.56,5.69-28.08,5.69ZM72.67,13.31c-7.78,0-15.55,1.55-22.94,4.65-14.63,6.13-25.99,17.59-32,32.26-12.4,30.3,2.15,65.04,32.45,77.44,14.68,6.01,30.81,5.94,45.44-.19,14.63-6.13,25.99-17.59,32-32.26h0c12.4-30.3-2.15-65.04-32.45-77.44-7.26-2.97-14.88-4.46-22.5-4.46Z"/>
      </g>
    </g>
  </g>
</svg>